<?xml version="1.0" encoding="utf-8"?>
<!-- Generator: Adobe Illustrator 24.0.1, SVG Export Plug-In . SVG Version: 6.00 Build 0)  -->
<svg version="1.1" id="Capa_1" xmlns="http://www.w3.org/2000/svg" xmlns:xlink="http://www.w3.org/1999/xlink" x="0px" y="0px"
	 viewBox="0 0 477.7 477.7" style="enable-background:new 0 0 477.7 477.7;" xml:space="preserve">
<style type="text/css">
	.st0{fill:#2B2B2B;}
</style>
<g>
	<g>
		<path class="st0" d="M433.6,101c0-0.2,0-0.3-0.1-0.5c-0.6-0.9-1.3-1.6-1.9-2.4c-4.5-6.1-9.2-11.9-14.2-17.5
			c-1.4-1.5-2.7-3.1-4.1-4.6c-5.1-5.5-10.5-10.7-16.1-15.7c-1-0.9-2-1.9-3.1-2.8c-13.9-11.9-29.1-22.2-45.3-30.6
			c-0.6-0.3-1.3-0.6-2-1c-7.2-3.7-14.6-7-22.2-9.9c-1.7-0.6-3.3-1.2-4.9-1.7c-6.7-2.4-13.6-4.5-20.5-6.4c-2-0.5-4.1-1.1-6.2-1.6
			c-6.8-1.6-13.7-2.8-20.6-3.8c-2.1-0.3-4.2-0.7-6.3-1c-18-2.2-36.2-2.2-54.1,0c-2.1,0.3-4.2,0.7-6.3,1c-7,1-13.9,2.2-20.6,3.8
			c-2.1,0.5-4.1,1-6.2,1.6c-7,1.8-13.8,3.9-20.5,6.4c-1.7,0.6-3.3,1.2-4.9,1.7c-7.6,2.9-15,6.2-22.2,9.9c-0.7,0.3-1.3,0.6-2,1
			C113,35.3,97.7,45.6,83.8,57.5c-1,0.9-2,1.9-3.1,2.8c-5.7,5-11.1,10.2-16.1,15.7c-1.4,1.5-2.8,3-4.1,4.6
			c-5,5.6-9.7,11.5-14.2,17.5c-0.6,0.8-1.3,1.6-1.9,2.4c-0.1,0.1-0.1,0.3-0.2,0.5c-58.9,82.5-58.9,193.3,0,275.8
			c0.1,0.2,0.1,0.3,0.2,0.5c0.6,0.9,1.3,1.6,1.9,2.4c4.4,6.1,9.2,11.9,14.2,17.5c1.4,1.5,2.7,3.1,4.1,4.6
			c5.1,5.5,10.5,10.7,16.1,15.7c1,0.9,2,1.9,3.1,2.8c13.9,11.9,29.1,22.2,45.3,30.6c0.6,0.3,1.3,0.6,2,1c7.2,3.7,14.6,7,22.2,9.9
			c1.7,0.6,3.3,1.2,4.9,1.7c6.7,2.4,13.6,4.5,20.5,6.4c2,0.5,4.1,1.1,6.2,1.6c6.8,1.6,13.7,2.8,20.6,3.8c2.1,0.3,4.2,0.7,6.3,1
			c18,2.2,36.2,2.2,54.1,0c2.1-0.3,4.2-0.7,6.3-1c7-1,13.9-2.2,20.6-3.8c2.1-0.5,4.1-1,6.2-1.6c7-1.8,13.8-3.9,20.5-6.4
			c1.7-0.6,3.3-1.2,4.9-1.7c7.6-2.9,15-6.2,22.2-9.9c0.7-0.3,1.3-0.6,2-1c16.2-8.4,31.4-18.7,45.3-30.6c1-0.9,2-1.9,3.1-2.8
			c5.7-5,11.1-10.2,16.1-15.7c1.4-1.5,2.8-3,4.1-4.6c5-5.6,9.7-11.5,14.2-17.5c0.6-0.8,1.3-1.6,1.9-2.4c0.1-0.1,0.1-0.3,0.2-0.5
			C492.4,294.3,492.4,183.5,433.6,101z M414.1,133.3c16.3,26.9,26.2,57.2,28.8,88.5H340.7c-1.3-20.3-4.5-40.5-9.6-60.2
			C360,156.2,387.9,146.6,414.1,133.3z M282.4,38.8c1,0.2,1.9,0.5,2.8,0.8c6.1,1.4,12.2,3.1,18.1,5.1c0.9,0.3,1.8,0.7,2.7,1
			c5.9,2,11.7,4.3,17.3,6.8c1,0.5,2,1,3,1.4c5.4,2.6,10.7,5.4,15.9,8.4l3.4,2.1c4.9,3,9.7,6.2,14.3,9.6c1.2,0.9,2.4,1.7,3.6,2.7
			c4.6,3.4,8.9,7.1,13.1,11c1.1,1,2.2,2,3.3,3c4.4,4.1,8.5,8.5,12.6,13.1c0.5,0.6,1.1,1.1,1.6,1.7c-23.1,11-47.6,18.9-72.8,23.4
			c-11.7-32.1-27.1-62.7-45.9-91.2C277.6,38,280,38.3,282.4,38.8z M171.3,221.8c1.3-18.5,4.5-36.8,9.4-54.6
			c19.3,2.3,38.8,3.4,58.3,3.4c19.5,0,39-1.2,58.3-3.5c4.9,17.9,8,36.2,9.3,54.7H171.3z M306.6,255.9c-1.3,18.5-4.5,36.8-9.4,54.6
			c-19.3-2.3-38.8-3.4-58.3-3.4c-19.5,0-39,1.1-58.3,3.4c-4.9-17.9-8-36.1-9.3-54.6H306.6z M238.9,45.2
			c19.4,27.5,35.4,57.3,47.6,88.7c-15.8,1.7-31.7,2.5-47.6,2.5c-15.9,0-31.7-0.9-47.5-2.5C203.6,102.5,219.6,72.7,238.9,45.2z
			 M85.5,103.7c4-4.5,8.2-8.9,12.6-13.1c1.1-1,2.2-2,3.3-3c4.2-3.8,8.6-7.5,13.1-11c1.2-0.9,2.4-1.7,3.6-2.7
			c4.6-3.4,9.4-6.6,14.3-9.6l3.4-2.1c5.2-3,10.5-5.8,15.9-8.4c1-0.5,2-1,3-1.4c5.7-2.6,11.5-4.8,17.3-6.8c0.9-0.3,1.7-0.7,2.7-1
			c5.9-2,11.9-3.6,18.1-5.1c1-0.2,1.9-0.5,2.9-0.7c2.3-0.5,4.8-0.8,7.1-1.2c-18.9,28.5-34.3,59.1-46,91.2
			c-25.2-4.5-49.7-12.4-72.8-23.4C84.5,104.8,85,104.3,85.5,103.7z M63.8,133.3c26.2,13.4,54.1,22.9,83,28.3
			c-5.1,19.7-8.3,39.9-9.5,60.2H35C37.6,190.5,47.5,160.2,63.8,133.3z M63.8,344.5c-16.3-26.9-26.2-57.2-28.8-88.5h102.2
			c1.3,20.3,4.5,40.5,9.6,60.2C117.9,321.6,90,331.1,63.8,344.5z M195.5,439c-1-0.2-1.9-0.5-2.8-0.8c-6.1-1.4-12.2-3.1-18.1-5.1
			c-0.9-0.3-1.8-0.7-2.7-1c-5.9-2-11.7-4.3-17.3-6.8c-1-0.5-2-1-3-1.4c-5.4-2.6-10.7-5.4-15.9-8.4l-3.4-2.1c-4.9-3-9.7-6.2-14.3-9.6
			c-1.2-0.9-2.4-1.7-3.6-2.7c-4.6-3.4-8.9-7.1-13.1-11c-1.1-1-2.2-2-3.3-3c-4.4-4.1-8.5-8.5-12.6-13.1c-0.5-0.6-1.1-1.1-1.6-1.7
			c23.1-11,47.6-18.9,72.8-23.4c11.7,32.1,27.1,62.7,45.9,91.2C200.3,439.7,197.9,439.5,195.5,439z M238.9,432.5
			c-19.4-27.5-35.4-57.3-47.6-88.7c31.6-3.4,63.5-3.4,95.1,0l0,0C274.3,375.2,258.3,405,238.9,432.5z M392.4,374.1
			c-4,4.5-8.2,8.9-12.6,13.1c-1.1,1-2.2,2-3.3,3c-4.2,3.8-8.6,7.5-13.1,11c-1.2,0.9-2.4,1.8-3.6,2.7c-4.6,3.4-9.4,6.6-14.3,9.6
			l-3.4,2.1c-5.2,3-10.5,5.8-15.9,8.4c-1,0.5-2,1-3,1.4c-5.7,2.6-11.5,4.8-17.3,6.8c-0.9,0.3-1.7,0.7-2.7,1
			c-5.9,2-11.9,3.6-18.1,5.1c-1,0.2-1.9,0.5-2.9,0.7c-2.3,0.5-4.8,0.8-7.1,1.2c18.8-28.5,34.3-59.1,45.9-91.2
			c25.2,4.5,49.7,12.4,72.8,23.4C393.4,372.9,392.9,373.5,392.4,374.1z M414.1,344.5c-26.2-13.4-54.1-22.9-83-28.3
			c5.1-19.7,8.3-39.9,9.5-60.2h102.2C440.3,287.3,430.4,317.6,414.1,344.5z"/>
	</g>
</g>
</svg>
